<svg width="58" height="70" viewBox="0 0 58 70" fill="none" xmlns="http://www.w3.org/2000/svg">
<g filter="url(#filter0_f_1823_6)">
<path d="M35.7606 42.7193C36.7526 41.7311 38.3609 41.7311 39.3529 42.7193L44.2252 47.5733C45.2172 48.5615 45.2172 50.1638 44.2252 51.152C43.2332 52.1403 41.6249 52.1403 40.633 51.152L35.7606 46.298C34.7687 45.3098 34.7687 43.7075 35.7606 42.7193Z" fill="#24A048"/>
<path d="M42.4599 51.9239C41.057 51.9239 39.9198 50.7909 39.9198 49.3934V15.6528C39.9198 14.2552 41.057 13.1222 42.4599 13.1222C43.8628 13.1222 45 14.2552 45 15.6528L45 49.3934C45 50.7909 43.8628 51.9239 42.4599 51.9239Z" fill="#4BB854"/>
<path d="M21.9595 35.923C20.9676 34.9347 20.9676 33.3325 21.9595 32.3443L40.6329 13.7412C41.6249 12.7529 43.2332 12.7529 44.2251 13.7412C45.2171 14.7294 45.2171 16.3317 44.2251 17.3199L25.5518 35.923C24.5598 36.9112 22.9515 36.9112 21.9595 35.923Z" fill="#21AB9D"/>
<path d="M21.9595 35.923C20.9676 34.9347 20.9676 33.3325 21.9595 32.3443C22.9515 31.356 24.5598 31.356 25.5518 32.3443C26.5438 33.3325 26.5438 34.9347 25.5518 35.923C24.5598 36.9112 22.9515 36.9112 21.9595 35.923Z" fill="#209583" fill-opacity="0.5"/>
<path d="M22.2394 27.2807C21.2474 28.2689 19.6391 28.2689 18.6471 27.2807L13.7748 22.4267C12.7828 21.4385 12.7828 19.8362 13.7748 18.848C14.7668 17.8597 16.3751 17.8597 17.367 18.848L22.2394 23.702C23.2313 24.6902 23.2313 26.2925 22.2394 27.2807Z" fill="#F58615"/>
<path d="M15.5401 18.0761C16.943 18.0761 18.0802 19.2091 18.0802 20.6066L18.0802 54.3472C18.0802 55.7448 16.943 56.8778 15.5401 56.8778C14.1372 56.8778 13 55.7448 13 54.3472L13 20.6066C13 19.2091 14.1372 18.0761 15.5401 18.0761Z" fill="#FA961D"/>
<path d="M36.0405 34.077C37.0324 35.0652 37.0324 36.6675 36.0405 37.6557L17.3671 56.2588C16.3751 57.2471 14.7668 57.2471 13.7749 56.2588C12.7829 55.2706 12.7829 53.6683 13.7749 52.6801L32.4482 34.077C33.4402 33.0888 35.0485 33.0888 36.0405 34.077Z" fill="#E11F28"/>
<path d="M36.0405 34.077C37.0324 35.0652 37.0324 36.6675 36.0405 37.6557C35.0485 38.644 33.4402 38.644 32.4482 37.6557C31.4562 36.6675 31.4562 35.0653 32.4482 34.077C33.4402 33.0888 35.0485 33.0888 36.0405 34.077Z" fill="#CA202A" fill-opacity="0.5"/>
</g>
<path d="M35.7606 42.7193C36.7526 41.7311 38.3609 41.7311 39.3529 42.7193L44.2252 47.5733C45.2172 48.5615 45.2172 50.1638 44.2252 51.152C43.2332 52.1403 41.6249 52.1403 40.633 51.152L35.7606 46.298C34.7687 45.3098 34.7687 43.7075 35.7606 42.7193Z" fill="#24A048"/>
<path d="M42.4599 51.9239C41.057 51.9239 39.9198 50.7909 39.9198 49.3934V15.6528C39.9198 14.2552 41.057 13.1222 42.4599 13.1222C43.8628 13.1222 45 14.2552 45 15.6528L45 49.3934C45 50.7909 43.8628 51.9239 42.4599 51.9239Z" fill="#4BB854"/>
<path d="M21.9595 35.923C20.9676 34.9347 20.9676 33.3325 21.9595 32.3443L40.6329 13.7412C41.6249 12.7529 43.2332 12.7529 44.2251 13.7412C45.2171 14.7294 45.2171 16.3317 44.2251 17.3199L25.5518 35.923C24.5598 36.9112 22.9515 36.9112 21.9595 35.923Z" fill="#21AB9D"/>
<path d="M21.9595 35.923C20.9676 34.9347 20.9676 33.3325 21.9595 32.3443C22.9515 31.356 24.5598 31.356 25.5518 32.3443C26.5438 33.3325 26.5438 34.9347 25.5518 35.923C24.5598 36.9112 22.9515 36.9112 21.9595 35.923Z" fill="#209583" fill-opacity="0.5"/>
<path d="M22.2394 27.2807C21.2474 28.2689 19.6391 28.2689 18.6471 27.2807L13.7748 22.4267C12.7828 21.4385 12.7828 19.8362 13.7748 18.848C14.7668 17.8597 16.3751 17.8597 17.367 18.848L22.2394 23.702C23.2313 24.6902 23.2313 26.2925 22.2394 27.2807Z" fill="#F58615"/>
<path d="M15.5401 18.0761C16.943 18.0761 18.0802 19.2091 18.0802 20.6066L18.0802 54.3472C18.0802 55.7448 16.943 56.8778 15.5401 56.8778C14.1372 56.8778 13 55.7448 13 54.3472L13 20.6066C13 19.2091 14.1372 18.0761 15.5401 18.0761Z" fill="#FA961D"/>
<path d="M36.0405 34.077C37.0324 35.0652 37.0324 36.6675 36.0405 37.6557L17.3671 56.2588C16.3751 57.2471 14.7668 57.2471 13.7749 56.2588C12.7829 55.2706 12.7829 53.6683 13.7749 52.6801L32.4482 34.077C33.4402 33.0888 35.0485 33.0888 36.0405 34.077Z" fill="#E11F28"/>
<path d="M36.0405 34.077C37.0324 35.0652 37.0324 36.6675 36.0405 37.6557C35.0485 38.644 33.4402 38.644 32.4482 37.6557C31.4562 36.6675 31.4562 35.0653 32.4482 34.077C33.4402 33.0888 35.0485 33.0888 36.0405 34.077Z" fill="#CA202A" fill-opacity="0.5"/>
<defs>
<filter id="filter0_f_1823_6" x="0" y="0" width="58" height="70" filterUnits="userSpaceOnUse" color-interpolation-filters="sRGB">
<feFlood flood-opacity="0" result="BackgroundImageFix"/>
<feBlend mode="normal" in="SourceGraphic" in2="BackgroundImageFix" result="shape"/>
<feGaussianBlur stdDeviation="6.5" result="effect1_foregroundBlur_1823_6"/>
</filter>
</defs>
</svg>
