<svg width="317" height="162" viewBox="0 0 317 162" fill="none" xmlns="http://www.w3.org/2000/svg">
<g filter="url(#filter0_di_2_569)">
<path d="M168.596 28.4598H116.304C113.669 28.4598 105.131 28.6501 98.0687 27.6845C94.7607 27.2323 91.8851 26.6743 90.5913 26.1575L89.9895 26.6337L100.873 42.203L102.143 42.0855C102.143 42.0855 101.193 40.8492 100.873 39.9242C100.193 37.965 99.4345 36.3701 100.873 34.5695C102.242 32.855 103.677 32.2891 106.481 32.2891H133.64V108.593C133.546 111.647 132.206 113.949 129.571 115.476C128.301 116.158 126.936 116.487 125.501 116.487H123.831V117.755H151.753V116.487H150.083C147.872 116.487 145.99 115.711 144.414 114.184C142.838 112.657 142.015 110.825 141.921 108.71V32.2656H168.572C168.572 30.8309 168.596 29.8962 168.596 28.4598Z" fill="url(#paint0_linear_2_569)"/>
<path d="M153.071 28.4598C155.705 28.4598 164.244 28.6501 171.306 27.6845C174.614 27.2323 177.49 26.6743 178.783 26.1575L179.385 26.6337L168.502 42.203L167.232 42.0855C167.232 42.0855 168.181 40.8492 168.502 39.9242C169.181 37.965 169.94 36.3701 168.502 34.5695C167.132 32.855 165.698 32.2891 162.894 32.2891H135.734C129.848 32.2891 119.566 28.4598 153.071 28.4598Z" fill="url(#paint1_linear_2_569)"/>
<path d="M217.553 133.663V134.897C214.45 135.626 211.346 136 208.243 136C194.859 136 181.867 129.308 169.305 115.923L146.817 89.5487L175.717 53.3022C176.371 52.4797 176.689 51.7506 176.689 51.0963C176.689 50.4421 176.558 49.8813 176.315 49.3766C175.661 48.1428 174.483 47.5446 172.763 47.5446H171.529V46.4417H197.364V47.5446H196.878C191.494 47.5446 187.082 49.47 183.643 53.3022L155.098 86.2399L178.689 113.83C184.073 119.625 190.129 124.373 196.878 128.093C203.607 131.813 210.487 133.663 217.515 133.663H217.553Z" fill="url(#paint2_linear_2_569)"/>
<path d="M153.071 29.4598C153.372 29.4598 153.753 29.4624 154.204 29.4654C155.405 29.4736 157.097 29.485 159.059 29.4598H167.592C167.59 29.767 167.587 30.0597 167.584 30.3534L167.584 30.3595C167.581 30.6553 167.578 30.9523 167.576 31.2656H141.921H140.921V31.2891H135.734C134.349 31.2891 132.695 31.0609 131.52 30.7286C131.47 30.7143 131.421 30.7001 131.374 30.6859C131.429 30.6719 131.485 30.6577 131.544 30.6435C132.41 30.4346 133.69 30.2307 135.497 30.0533C139.105 29.699 144.708 29.4598 153.071 29.4598ZM116.304 29.4598H129.161C129.065 29.5309 128.976 29.6096 128.895 29.6969C128.612 30.0045 128.411 30.4665 128.554 30.9927C128.583 31.1006 128.624 31.1992 128.672 31.2891H106.481C105.023 31.2891 103.816 31.4339 102.764 31.8592C101.688 32.294 100.856 32.9881 100.091 33.9454C99.1971 35.0649 98.9628 36.1811 99.0845 37.2959C99.114 37.566 99.1655 37.8382 99.2311 38.109L91.8796 27.5922C93.458 27.9846 95.6231 28.3595 97.9332 28.6753C104.253 29.5393 111.729 29.4887 115.171 29.4654C115.622 29.4624 116.003 29.4598 116.304 29.4598ZM171.441 28.6753C173.752 28.3595 175.917 27.9846 177.495 27.5922L170.144 38.109C170.209 37.8382 170.261 37.566 170.29 37.2959C170.412 36.1811 170.178 35.0649 169.283 33.9454C169.089 33.7018 168.89 33.4752 168.684 33.2656H169.572L169.572 32.2656C169.572 31.5548 169.578 30.9676 169.584 30.3758L169.584 30.3733C169.589 29.905 169.593 29.4338 169.595 28.8996C170.218 28.8327 170.835 28.7582 171.441 28.6753ZM135.734 33.2891H140.921V108.71V108.733L140.922 108.755C141.027 111.129 141.962 113.201 143.718 114.902C144.546 115.705 145.456 116.324 146.446 116.755H129.209C129.491 116.637 129.769 116.505 130.044 116.358L130.058 116.35L130.072 116.342C133.014 114.637 134.536 112.014 134.64 108.624L134.64 108.608V108.593V33.2518C135.014 33.2762 135.381 33.2891 135.734 33.2891ZM130.368 30.2523C130.369 30.2523 130.372 30.2551 130.377 30.2608C130.371 30.2553 130.368 30.2524 130.368 30.2523ZM208.243 135C195.231 135 182.49 128.505 170.05 115.256L190.805 47.4417C187.783 48.4028 185.142 50.1352 182.899 52.6342L182.893 52.6407L182.887 52.6473L154.342 85.585L153.779 86.2356L154.338 86.8898L177.929 114.479L177.942 114.495L177.956 114.51C183.41 120.381 189.551 125.195 196.394 128.968C202.21 132.183 208.155 134.039 214.223 134.53C212.228 134.842 210.235 135 208.243 135Z" stroke="white" stroke-opacity="0.2" stroke-width="2"/>
</g>
<path opacity="0.99" d="M12.1437 76.6301H7.60767V93.3461H5.53567V76.6301H0.999666V74.6701H12.1437V76.6301ZM25.7175 74.6701H29.0775C30.9442 74.6701 32.3722 75.0621 33.3615 75.8461C34.4815 76.7047 35.0415 77.9927 35.0415 79.7101C35.0415 81.3154 34.4255 82.5381 33.1935 83.3781C34.3882 83.6767 35.2749 84.2834 35.8535 85.1981C36.4509 86.0941 36.7495 87.0554 36.7495 88.0821C36.7495 88.9221 36.5629 89.6967 36.1895 90.4061C35.8349 91.1154 35.3869 91.6847 34.8455 92.1141C33.8002 92.9354 32.3069 93.3461 30.3655 93.3461H25.7175V74.6701ZM27.7895 76.6301V82.8741H29.3575C29.6375 82.8741 29.9082 82.8647 30.1695 82.8461C30.4309 82.8087 30.7389 82.7341 31.0935 82.6221C31.4669 82.4914 31.7842 82.3234 32.0455 82.1181C32.3255 81.9127 32.5589 81.6047 32.7455 81.1941C32.9322 80.7834 33.0255 80.3074 33.0255 79.7661C33.0255 79.1874 32.9135 78.6927 32.6895 78.2821C32.4655 77.8527 32.2135 77.5354 31.9335 77.3301C31.6535 77.1247 31.3175 76.9661 30.9255 76.8541C30.5335 76.7421 30.2349 76.6767 30.0295 76.6581C29.8242 76.6394 29.6189 76.6301 29.4135 76.6301H27.7895ZM27.7895 84.7221V91.3861H30.1695C31.6815 91.3861 32.7735 91.1247 33.4455 90.6021C34.2669 90.0047 34.6775 89.1461 34.6775 88.0261C34.6775 86.7754 34.1455 85.8607 33.0815 85.2821C32.4095 84.9087 31.3549 84.7221 29.9175 84.7221H27.7895ZM66.9412 90.9101C65.0745 92.7581 62.7785 93.6821 60.0532 93.6821C57.3279 93.6821 55.0225 92.7581 53.1372 90.9101C51.2705 89.0621 50.3372 86.7661 50.3372 84.0221C50.3372 81.2594 51.2799 78.9634 53.1652 77.1341C55.0505 75.2861 57.3465 74.3621 60.0532 74.3621C62.7599 74.3621 65.0559 75.2861 66.9412 77.1341C68.8265 78.9634 69.7692 81.2594 69.7692 84.0221C69.7692 86.7661 68.8265 89.0621 66.9412 90.9101ZM65.4292 78.5621C63.9545 77.0687 62.1625 76.3221 60.0532 76.3221C57.9439 76.3221 56.1519 77.0687 54.6772 78.5621C53.2025 80.0554 52.4652 81.8754 52.4652 84.0221C52.4652 86.1687 53.2025 87.9887 54.6772 89.4821C56.1519 90.9754 57.9439 91.7221 60.0532 91.7221C62.1625 91.7221 63.9545 90.9754 65.4292 89.4821C66.9039 87.9887 67.6412 86.1687 67.6412 84.0221C67.6412 81.8754 66.9039 80.0554 65.4292 78.5621ZM82.7877 93.3461L88.2757 85.0581C87.0063 84.9274 85.961 84.5354 85.1397 83.8821C84.057 83.0047 83.5157 81.7354 83.5157 80.0741C83.5157 78.5434 83.945 77.3021 84.8037 76.3501C85.8117 75.2301 87.361 74.6701 89.4517 74.6701H93.8197V93.3461H91.7477V85.1701H90.6277L85.3077 93.3461H82.7877ZM91.7477 76.6301H89.7317C88.2383 76.6301 87.1743 76.9567 86.5397 77.6101C85.9423 78.2447 85.6437 79.0474 85.6437 80.0181C85.6437 81.1194 85.9983 81.9594 86.7077 82.5381C87.3797 83.0607 88.3317 83.3221 89.5637 83.3221H91.7477V76.6301ZM198.057 74.6701V82.6781L206.009 74.6701H208.809L200.073 83.3781L209.089 93.3461H206.233L198.589 84.7781L198.057 85.3101V93.3461H195.985V74.6701H198.057ZM220.495 74.6701H223.015L228.839 85.6741L233.711 74.6701H235.951L227.523 93.3461H225.283L227.663 88.1381L220.495 74.6701ZM247.357 93.3461L252.873 83.6861L247.861 74.6701H250.213L254.077 81.6981L258.053 74.6701H260.405L255.281 83.6861L260.685 93.3461H258.333L254.049 85.6741L249.709 93.3461H247.357ZM276.334 74.6701V82.2581H285.91V74.6701H287.982V93.3461H285.91V84.2181H276.334V93.3461H274.262V74.6701H276.334ZM302.013 93.3461L307.501 85.0581C306.232 84.9274 305.187 84.5354 304.365 83.8821C303.283 83.0047 302.741 81.7354 302.741 80.0741C302.741 78.5434 303.171 77.3021 304.029 76.3501C305.037 75.2301 306.587 74.6701 308.677 74.6701H313.045V93.3461H310.973V85.1701H309.853L304.533 93.3461H302.013ZM310.973 76.6301H308.957C307.464 76.6301 306.4 76.9567 305.765 77.6101C305.168 78.2447 304.869 79.0474 304.869 80.0181C304.869 81.1194 305.224 81.9594 305.933 82.5381C306.605 83.0607 307.557 83.3221 308.789 83.3221H310.973V76.6301Z" fill="#EDECEA"/>
<defs>
<filter id="filter0_di_2_569" x="63.9895" y="0.157471" width="179.563" height="161.843" filterUnits="userSpaceOnUse" color-interpolation-filters="sRGB">
<feFlood flood-opacity="0" result="BackgroundImageFix"/>
<feColorMatrix in="SourceAlpha" type="matrix" values="0 0 0 0 0 0 0 0 0 0 0 0 0 0 0 0 0 0 127 0" result="hardAlpha"/>
<feOffset/>
<feGaussianBlur stdDeviation="13"/>
<feComposite in2="hardAlpha" operator="out"/>
<feColorMatrix type="matrix" values="0 0 0 0 0.94902 0 0 0 0 0.541176 0 0 0 0 0.415686 0 0 0 0.63 0"/>
<feBlend mode="normal" in2="BackgroundImageFix" result="effect1_dropShadow_2_569"/>
<feBlend mode="normal" in="SourceGraphic" in2="effect1_dropShadow_2_569" result="shape"/>
<feColorMatrix in="SourceAlpha" type="matrix" values="0 0 0 0 0 0 0 0 0 0 0 0 0 0 0 0 0 0 127 0" result="hardAlpha"/>
<feMorphology radius="7" operator="dilate" in="SourceAlpha" result="effect2_innerShadow_2_569"/>
<feOffset/>
<feGaussianBlur stdDeviation="22.5"/>
<feComposite in2="hardAlpha" operator="arithmetic" k2="-1" k3="1"/>
<feColorMatrix type="matrix" values="0 0 0 0 1 0 0 0 0 1 0 0 0 0 1 0 0 0 0.37 0"/>
<feBlend mode="normal" in2="shape" result="effect2_innerShadow_2_569"/>
</filter>
<linearGradient id="paint0_linear_2_569" x1="146" y1="26" x2="147" y2="126.5" gradientUnits="userSpaceOnUse">
<stop stop-color="#FF855E"/>
<stop offset="1" stop-color="#D3613D"/>
</linearGradient>
<linearGradient id="paint1_linear_2_569" x1="146" y1="26" x2="147" y2="126.5" gradientUnits="userSpaceOnUse">
<stop stop-color="#FF855E"/>
<stop offset="1" stop-color="#D3613D"/>
</linearGradient>
<linearGradient id="paint2_linear_2_569" x1="146" y1="26" x2="147" y2="126.5" gradientUnits="userSpaceOnUse">
<stop stop-color="#FF855E"/>
<stop offset="1" stop-color="#D3613D"/>
</linearGradient>
</defs>
</svg>
