<svg width="181" height="162" viewBox="0 0 181 162" fill="none" xmlns="http://www.w3.org/2000/svg">
<g filter="url(#filter0_di_2_580)">
<path d="M105.596 28.4598H53.3039C50.6693 28.4598 42.1307 28.6501 35.0687 27.6845C31.7607 27.2323 28.8851 26.6743 27.5913 26.1575L26.9895 26.6337L37.8727 42.203L39.143 42.0855C39.143 42.0855 38.1934 40.8492 37.8727 39.9242C37.1934 37.965 36.4345 36.3701 37.8727 34.5695C39.2422 32.855 40.6767 32.2891 43.4807 32.2891H70.6404V108.593C70.5464 111.647 69.2055 113.949 66.5709 115.476C65.3007 116.158 63.9364 116.487 62.5014 116.487H60.8313V117.755H88.7533V116.487H87.0831C84.8719 116.487 82.9901 115.711 81.414 114.184C79.838 112.657 79.0147 110.825 78.9206 108.71V32.2656H105.572C105.572 30.8309 105.596 29.8962 105.596 28.4598Z" fill="url(#paint0_linear_2_580)"/>
<path d="M90.0708 28.4598C92.7054 28.4598 101.244 28.6501 108.306 27.6845C111.614 27.2323 114.49 26.6743 115.783 26.1575L116.385 26.6337L105.502 42.203L104.232 42.0855C104.232 42.0855 105.181 40.8492 105.502 39.9242C106.181 37.965 106.94 36.3701 105.502 34.5695C104.132 32.855 102.698 32.2891 99.894 32.2891H72.7343C66.8477 32.2891 56.5662 28.4598 90.0708 28.4598Z" fill="url(#paint1_linear_2_580)"/>
<path d="M154.553 133.663V134.897C151.45 135.626 148.346 136 145.243 136C131.859 136 118.867 129.308 106.305 115.923L83.8168 89.5487L112.717 53.3022C113.371 52.4797 113.689 51.7506 113.689 51.0963C113.689 50.4421 113.558 49.8813 113.315 49.3766C112.661 48.1428 111.483 47.5446 109.763 47.5446H108.529V46.4417H134.364V47.5446H133.878C128.494 47.5446 124.082 49.47 120.643 53.3022L92.098 86.2399L115.689 113.83C121.073 119.625 127.129 124.373 133.878 128.093C140.607 131.813 147.487 133.663 154.515 133.663H154.553Z" fill="url(#paint2_linear_2_580)"/>
<path d="M90.0708 29.4598C90.3716 29.4598 90.7532 29.4624 91.2039 29.4654C92.4048 29.4736 94.0966 29.485 96.059 29.4598H104.592C104.59 29.767 104.587 30.0597 104.584 30.3534L104.584 30.3595C104.581 30.6553 104.578 30.9523 104.576 31.2656H78.9206H77.9206V31.2891H72.7343C71.3488 31.2891 69.6945 31.0609 68.5205 30.7286C68.4701 30.7143 68.4214 30.7001 68.3744 30.6859C68.4287 30.6719 68.4852 30.6577 68.5441 30.6435C69.4101 30.4346 70.6905 30.2307 72.4972 30.0533C76.1054 29.699 81.7076 29.4598 90.0708 29.4598ZM53.3039 29.4598H66.1606C66.0653 29.5309 65.9758 29.6096 65.8954 29.6969C65.612 30.0045 65.4115 30.4665 65.5539 30.9927C65.5831 31.1006 65.6239 31.1992 65.6721 31.2891H43.4807C42.0234 31.2891 40.8163 31.4339 39.764 31.8592C38.6882 32.294 37.856 32.9881 37.0913 33.9454C36.1971 35.0649 35.9628 36.1811 36.0845 37.2959C36.114 37.566 36.1655 37.8382 36.2311 38.109L28.8796 27.5922C30.458 27.9846 32.6231 28.3595 34.9332 28.6753C41.2529 29.5393 48.7287 29.4887 52.1708 29.4654C52.6216 29.4624 53.0031 29.4598 53.3039 29.4598ZM108.441 28.6753C110.752 28.3595 112.917 27.9846 114.495 27.5922L107.144 38.109C107.209 37.8382 107.261 37.566 107.29 37.2959C107.412 36.1811 107.178 35.0649 106.283 33.9454C106.089 33.7018 105.89 33.4752 105.684 33.2656H106.572L106.572 32.2656C106.572 31.5548 106.578 30.9676 106.584 30.3758L106.584 30.3733C106.589 29.905 106.593 29.4338 106.595 28.8996C107.218 28.8327 107.835 28.7582 108.441 28.6753ZM72.7343 33.2891H77.9206V108.71V108.733L77.9216 108.755C78.0272 111.129 78.9622 113.201 80.7182 114.902C81.5464 115.705 82.4565 116.324 83.4457 116.755H66.2087C66.4907 116.637 66.7692 116.505 67.0436 116.358L67.0581 116.35L67.0724 116.342C70.0138 114.637 71.5355 112.014 71.64 108.624L71.6404 108.608V108.593V33.2518C72.0136 33.2762 72.3812 33.2891 72.7343 33.2891ZM67.3682 30.2523C67.3685 30.2523 67.3719 30.2551 67.3773 30.2608C67.3707 30.2553 67.3679 30.2524 67.3682 30.2523ZM145.243 135C132.231 135 119.49 128.505 107.05 115.256L127.805 47.4417C124.783 48.4028 122.142 50.1352 119.899 52.6342L119.893 52.6407L119.887 52.6473L91.3423 85.585L90.7785 86.2356L91.338 86.8898L114.929 114.479L114.942 114.495L114.956 114.51C120.41 120.381 126.551 125.195 133.394 128.968C139.21 132.183 145.155 134.039 151.223 134.53C149.228 134.842 147.235 135 145.243 135Z" stroke="white" stroke-opacity="0.2" stroke-width="2"/>
</g>
<defs>
<filter id="filter0_di_2_580" x="0.989502" y="0.157471" width="179.563" height="161.843" filterUnits="userSpaceOnUse" color-interpolation-filters="sRGB">
<feFlood flood-opacity="0" result="BackgroundImageFix"/>
<feColorMatrix in="SourceAlpha" type="matrix" values="0 0 0 0 0 0 0 0 0 0 0 0 0 0 0 0 0 0 127 0" result="hardAlpha"/>
<feOffset/>
<feGaussianBlur stdDeviation="13"/>
<feComposite in2="hardAlpha" operator="out"/>
<feColorMatrix type="matrix" values="0 0 0 0 0.94902 0 0 0 0 0.541176 0 0 0 0 0.415686 0 0 0 0.63 0"/>
<feBlend mode="normal" in2="BackgroundImageFix" result="effect1_dropShadow_2_580"/>
<feBlend mode="normal" in="SourceGraphic" in2="effect1_dropShadow_2_580" result="shape"/>
<feColorMatrix in="SourceAlpha" type="matrix" values="0 0 0 0 0 0 0 0 0 0 0 0 0 0 0 0 0 0 127 0" result="hardAlpha"/>
<feMorphology radius="7" operator="dilate" in="SourceAlpha" result="effect2_innerShadow_2_580"/>
<feOffset/>
<feGaussianBlur stdDeviation="22.5"/>
<feComposite in2="hardAlpha" operator="arithmetic" k2="-1" k3="1"/>
<feColorMatrix type="matrix" values="0 0 0 0 1 0 0 0 0 1 0 0 0 0 1 0 0 0 0.37 0"/>
<feBlend mode="normal" in2="shape" result="effect2_innerShadow_2_580"/>
</filter>
<linearGradient id="paint0_linear_2_580" x1="83" y1="26" x2="84" y2="126.5" gradientUnits="userSpaceOnUse">
<stop stop-color="#FF855E"/>
<stop offset="1" stop-color="#D3613D"/>
</linearGradient>
<linearGradient id="paint1_linear_2_580" x1="83" y1="26" x2="84" y2="126.5" gradientUnits="userSpaceOnUse">
<stop stop-color="#FF855E"/>
<stop offset="1" stop-color="#D3613D"/>
</linearGradient>
<linearGradient id="paint2_linear_2_580" x1="83" y1="26" x2="84" y2="126.5" gradientUnits="userSpaceOnUse">
<stop stop-color="#FF855E"/>
<stop offset="1" stop-color="#D3613D"/>
</linearGradient>
</defs>
</svg>
