<?xml version="1.0" standalone="no"?>
<!DOCTYPE svg PUBLIC "-//W3C//DTD SVG 20010904//EN"
 "http://www.w3.org/TR/2001/REC-SVG-20010904/DTD/svg10.dtd">
<svg version="1.0" xmlns="http://www.w3.org/2000/svg"
 width="1020.000000pt" height="1020.000000pt" viewBox="0 0 1020.000000 1020.000000"
 preserveAspectRatio="xMidYMid meet">
<metadata>
Created by potrace 1.14, written by Peter Selinger 2001-2017
</metadata>
<g transform="translate(0.000000,1020.000000) scale(0.100000,-0.100000)"
fill="#000000" stroke="none">
<path d="M8040 10177 c-41 -11 -76 -24 -78 -29 -2 -4 -10 -8 -17 -8 -7 0 -36
-15 -64 -32 -52 -34 -4409 -4387 -4453 -4450 -13 -18 -25 -35 -28 -38 -17 -16
-40 -65 -64 -133 -37 -106 -40 -200 -11 -345 9 -44 63 -149 105 -204 108 -140
295 -228 470 -222 90 4 128 8 137 17 3 4 13 7 22 7 27 0 143 59 188 96 23 19
575 568 1225 1220 651 652 1190 1193 1198 1201 8 8 225 224 481 480 l466 466
1 -2512 0 -2511 -68 67 c-127 128 -202 179 -310 212 -229 70 -493 -21 -643
-220 -30 -41 -76 -141 -92 -204 -15 -58 -21 -185 -10 -235 13 -66 18 -83 31
-113 8 -17 22 -45 31 -62 9 -16 22 -43 30 -58 16 -30 1230 -1249 1278 -1283
258 -181 617 -125 803 125 15 20 29 38 32 41 17 15 61 124 74 183 14 62 16
468 16 4045 -1 4191 1 4020 -43 4137 -52 142 -172 272 -304 331 -118 54 -276
66 -403 31z"/>
<path d="M1937 9023 c-2 -1 -18 -5 -37 -8 -187 -31 -343 -149 -429 -322 -66
-132 -61 209 -61 -4178 0 -2372 4 -4003 9 -4020 5 -17 15 -48 21 -70 61 -201
216 -351 418 -406 50 -14 91 -17 162 -14 52 2 102 6 110 8 50 11 137 44 150
57 3 3 19 11 35 19 31 15 4403 4382 4463 4458 17 22 32 44 32 49 0 4 7 15 16
25 8 9 16 23 18 31 1 7 4 18 8 23 29 46 59 305 35 305 -4 0 -5 5 -2 10 15 25
-62 210 -113 271 -36 44 -87 91 -127 119 -50 34 -147 80 -184 86 -14 3 -42 9
-61 13 -29 6 -104 6 -180 0 -68 -5 -197 -60 -263 -111 -21 -17 -509 -503
-1085 -1080 -576 -577 -1054 -1056 -1062 -1065 -8 -8 -288 -287 -621 -620
l-607 -606 0 210 c1 116 -2 215 -6 222 -4 6 -4 11 1 11 4 0 7 1028 7 2285 -1
1257 1 2285 3 2285 3 0 43 -38 90 -85 121 -120 262 -198 356 -197 9 1 17 -2
17 -6 0 -17 173 0 250 23 61 19 170 74 170 87 0 4 5 8 11 8 6 0 37 28 69 62
102 107 161 254 161 403 0 76 -2 90 -26 174 -38 131 -57 153 -719 815 l-622
623 -84 41 c-47 22 -110 45 -140 51 -50 10 -177 20 -183 14z"/>
</g>
</svg>
